#N canvas 39 92 680 592 12;
#X obj 172 115 metro;
#X floatatom 204 89 5 0 0 0 - - - 0;
#X obj 172 31 tgl 19 0 empty empty empty 0 -10 0 12 #fcfcfc #000000 #000000 0 1;
#X floatatom 204 33 5 0 0 0 - - - 0;
#X obj 204 58 expr (60000/$f1);
#X obj 172 144 bng 19 250 50 0 empty empty empty 0 -10 0 12 #fcfcfc #000000 #000000;
#X obj 172 181 f;
#X obj 206 181 + 1;
#X obj 172 237 % 4;
#X floatatom 172 210 5 0 0 0 - - - 0;
#X floatatom 172 261 5 0 0 0 - - - 0;
#X obj 171 287 select 0 1 2 3;
#X obj 196 319 bng 19 250 50 0 empty empty empty 0 -10 0 12 #fcfcfc #000000 #000000;
#X obj 222 319 bng 19 250 50 0 empty empty empty 0 -10 0 12 #fcfcfc #000000 #000000;
#X obj 249 318 bng 19 250 50 0 empty empty empty 0 -10 0 12 #fcfcfc #000000 #000000;
#X obj 171 319 bng 19 250 50 0 empty empty empty 0 -10 0 12 #fcfcfc #000000 #000000;
#X obj 171 397 dac~;
#X msg 171 345 open /Users/bernardahn/Downloads/strong_pulse.wav \, 2;
#X obj 253 371 readsf~ 1;
#X obj 171 371 readsf~ 1;
#X obj 209 473 dac~;
#X obj 291 447 readsf~ 1;
#X obj 209 447 readsf~ 1;
#X msg 209 421 open /Users/bernardahn/Downloads/weak_pulse.wav \, 2;
#X text 245 32 bpm;
#X text 247 89 millisecond;
#X connect 0 0 5 0;
#X connect 1 0 0 1;
#X connect 2 0 0 0;
#X connect 3 0 4 0;
#X connect 4 0 1 0;
#X connect 5 0 6 0;
#X connect 6 0 7 0;
#X connect 6 0 9 0;
#X connect 7 0 6 1;
#X connect 8 0 10 0;
#X connect 9 0 8 0;
#X connect 10 0 11 0;
#X connect 11 0 15 0;
#X connect 11 1 12 0;
#X connect 11 2 13 0;
#X connect 11 3 14 0;
#X connect 12 0 23 0;
#X connect 13 0 23 0;
#X connect 14 0 23 0;
#X connect 15 0 17 0;
#X connect 17 0 19 0;
#X connect 17 0 18 0;
#X connect 18 0 16 1;
#X connect 19 0 16 0;
#X connect 21 0 20 1;
#X connect 22 0 20 0;
#X connect 23 0 22 0;
#X connect 23 0 21 0;
